# xmcd CD database file
#
# Track frame offsets:
#	150
#	17111
#	29027
#	44567
#	61103
#	84085
#	105966
#	121161
#	134428
#	151994
#	169662
#	188565
#	204294
#	220680
#
# Disc length: 3133 seconds
#
# Revision: 0
# Processed by: cddbd v1.5.2PL0 Copyright (c) Steve Scherf et al.
# Submitted via: CDex 1.51
#
DISCID=ad0c3b0e
DTITLE=The Guess Who - The Best Of
DYEAR=1900
DGENRE=Blues
TTITLE0=These Eyes
TTITLE1=Laughing
TTITLE2=Undun
TTITLE3=No Time
TTITLE4=American Women
TTITLE5=No Sugar Tonight/New Mother Nature
TTITLE6=Hand Me Down World
TTITLE7=Bus Rider
TTITLE8=Share The Land
TTITLE9=Do You Miss Me Darlin'?
TTITLE10=Hang On To Your Life
TTITLE11=Clap For The Wolfman
TTITLE12=When You Touch Me
TTITLE13=Old Joe
EXTD=
EXTT0=
EXTT1=
EXTT2=
EXTT3=
EXTT4=
EXTT5=
EXTT6=
EXTT7=
EXTT8=
EXTT9=
EXTT10=
EXTT11=
EXTT12=
EXTT13=
PLAYORDER=
